<?xml version="1.0" encoding="UTF-8" standalone="no"?>
<svg
   width="13.8125"
   height="25"
   viewBox="0 -4 13.8125 25"
   fill="none"
   version="1.1"
   id="svg1"
   xmlns="http://www.w3.org/2000/svg"
   xmlns:svg="http://www.w3.org/2000/svg">
  <defs
     id="defs1" />
  <path
     d="m 0.5,4.7500035 h 1.625 0.5 v -0.5 -1.0625 c 0,-0.37204 0.07025,-0.71706 0.2086,-1.03986 0.141,-0.329 0.33402,-0.61184 0.57956,-0.85275 0.24907,-0.24437 0.53535,-0.43705996 0.86189,-0.57902996 0.31619,-0.13747 0.66131,-0.21074 1.04055,-0.21586 0.4865,5.1e-4 0.9323,0.12125 1.3467,0.36335 l 0.2523,0.14737996 0.0651,-0.03807 0.4254,0.52802 c 0.1411,0.17517 0.2465,0.34 0.3214,0.49414 0.0789,0.16238 0.1347,0.32027 0.1699,0.47402 0.0389,0.17053 0.0658,0.34362 0.0804,0.51946 C 7.9921,3.1720135 8,3.3711035 8,3.5859435 v 0.66406 0.5 h 0.5 2.125 0.5 v -0.5 -1.0625 c 0,-0.3538 -0.0684,-0.69442 -0.2059,-1.01755 -0.1355,-0.31835 -0.3247,-0.5986 -0.5683,-0.83523 l -0.3484,0.35864 0.3484,-0.35864 c -0.238,-0.23119 -0.5144,-0.41561996 -0.8251,-0.55440996 -0.3249,-0.14518 -0.6684,-0.21781 -1.0257,-0.21781 -0.3057,0 -0.6007,0.05118 -0.8811,0.15635 l -0.5717,0.21437 0.1196,-0.06987 c 0.4168,-0.24353 0.8584,-0.36335 1.3332,-0.36335 0.372,0 0.7171,0.07025 1.0399,0.2086 0.329,0.141 0.6118,0.33401996 0.8527,0.57955996 0.2444,0.24907 0.4371,0.53535 0.579,0.86189 0.1375,0.31622 0.2108,0.66138 0.2159,1.04069 v 1.05926 0.5 h 0.5 1.625 V 14.875004 c 0,0.2287 -0.0428,0.4343 -0.1246,0.6224 -0.086,0.1978 -0.2028,0.3695 -0.3515,0.5182 -0.147,0.1469 -0.3198,0.2636 -0.5229,0.35 -0.1987,0.0846 -0.4079,0.1296 -0.6311,0.1344 H 2.125 c -0.22865,0 -0.43429,-0.0428 -0.62242,-0.1246 -0.19781,-0.086 -0.36944,-0.2028 -0.51817,-0.3515 -0.14872,-0.1487 -0.26555,-0.3204 -0.35156,-0.5182 -0.08211,-0.1888 -0.12796,-0.3989 -0.13285,-0.6356 z m 2.1875,-0.5 v 0.5 h 0.5 4.25 0.5 v -0.5 -1.0625 c 0,-0.3538 -0.0684,-0.69442 -0.2059,-1.01755 -0.1355,-0.31835 -0.3247,-0.5986 -0.5683,-0.83523 C 6.9253,1.1035335 6.6489,0.91910354 6.3382,0.78031354 L 6.1343,1.2368235 6.3382,0.78031354 c -0.3249,-0.14518 -0.6684,-0.21781 -1.0257,-0.21781 -0.35794,0 -0.70015,0.06792 -1.02114,0.20748 -0.3113,0.13535 -0.58791,0.32287996 -0.82655,0.56152996 -0.24043,0.24042 -0.42813,0.52133 -0.56307,0.83844 -0.13622,0.32011 -0.20741,0.65734 -0.21415,1.00794 l -9e-5,-1e-5 v 0.00962 z m 7.375,1.0625 v -0.5 h -0.5 -8.5 -0.5 v 0.5 9.5625005 c 0,0.2127 0.03974,0.4195 0.12447,0.6144 0.07926,0.1823 0.18877,0.3459 0.3291,0.4862 l 0.35356,-0.3535 -0.35355,0.3535 c 0.14003,0.1401 0.30401,0.2502 0.48555,0.3334 l 0.20833,-0.4545 -0.20833,0.4545 c 0.19977,0.0916 0.41232,0.1353 0.63194,0.1285 h 7.71113 0.8581 l -0.4231,-0.7465 c -0.1461,-0.258 -0.2172,-0.5274 -0.2172,-0.816 z m 3.1875,0 v -0.5 h -0.5 -2.125 -0.5 v 0.5 9.5625005 c 0,0.2127 0.0397,0.4195 0.1245,0.6144 0.0792,0.1823 0.1887,0.3459 0.3291,0.4862 0.14,0.1401 0.304,0.2502 0.4855,0.3334 l 0.2084,-0.4545 -0.2084,0.4545 c 0.2001,0.0917 0.4129,0.1354 0.6328,0.1285 0.2094,-0.0012 0.413,-0.041 0.605,-0.1245 0.1823,-0.0792 0.3459,-0.1887 0.4862,-0.3291 l -0.3535,-0.3535 0.3535,0.3535 c 0.1401,-0.14 0.2502,-0.304 0.3334,-0.4855 0.0916,-0.1998 0.1353,-0.4124 0.1285,-0.632 z"
     stroke="#222222"
     id="path1" />
</svg>
