<?xml version="1.0" encoding="UTF-8" standalone="no"?>
<svg
   width="20.625"
   height="25"
   viewBox="0 -4 20.625 25"
   fill="none"
   version="1.1"
   id="svg1"
   xmlns="http://www.w3.org/2000/svg"
   xmlns:svg="http://www.w3.org/2000/svg">
  <defs
     id="defs1" />
  <path
     d="M 15,0 C 13.0313,0 11.3194,0.88781 10.3125,2.37563 9.3056,0.88781 7.59375,0 5.625,0 4.13369,0.00174 2.70396,0.59493 1.64944,1.64944 0.59493,2.70396 0.00174,4.13369 0,5.625 c 0,2.7375 1.70625,5.5866 5.07187,8.4666 1.54224,1.3141 3.20814,2.4758 4.97443,3.4687 0.0818,0.044 0.1733,0.067 0.2662,0.067 0.0929,0 0.1844,-0.023 0.2662,-0.067 1.7663,-0.9929 3.4322,-2.1546 4.9744,-3.4687 C 18.9187,11.2116 20.625,8.3625 20.625,5.625 20.6233,4.13369 20.0301,2.70396 18.9756,1.64944 17.921,0.59493 16.4913,0.00174 15,0 Z M 10.3125,16.4166 C 8.7741,15.5288 1.125,10.8488 1.125,5.625 1.12624,4.43191 1.60075,3.28803 2.44439,2.44439 3.28803,1.60075 4.43191,1.12624 5.625,1.125 c 1.90125,0 3.4978,1.01531 4.1672,2.65031 0.0424,0.10317 0.1145,0.19141 0.2071,0.25351 0.0927,0.0621 0.2017,0.09526 0.3132,0.09526 0.1115,0 0.2205,-0.03316 0.3132,-0.09526 0.0926,-0.0621 0.1647,-0.15034 0.2071,-0.25351 C 11.5022,2.14031 13.0988,1.125 15,1.125 c 1.1931,0.00124 2.337,0.47575 3.1806,1.31939 0.8437,0.84364 1.3182,1.98752 1.3194,3.18061 0,5.2238 -7.6491,9.9038 -9.1875,10.7916 z"
     fill="#222222"
     id="path1" />
</svg>
