<?xml version="1.0" encoding="UTF-8" standalone="no"?>
<svg
   width="16.997999"
   height="25"
   viewBox="0 0 16.997999 25"
   fill="none"
   version="1.1"
   id="svg1"
   xmlns="http://www.w3.org/2000/svg"
   xmlns:svg="http://www.w3.org/2000/svg">
  <defs
     id="defs1" />
  <path
     d="M 16.2654,21 9.7684,14.503 C 9.2496,14.945 8.653,15.287 7.9786,15.5291 7.3042,15.7712 6.6264,15.8922 5.94507,15.8922 4.28363,15.8922 2.87743,15.3171 1.72646,14.1668 0.57549,13.0158 0,11.61 0,9.94922 0,8.28848 0.57479,6.88192 1.72438,5.72957 2.87466,4.57652 4.28018,4 5.94092,4 7.6024,4 9.0093,4.57549 10.1616,5.72646 c 1.1524,1.15097 1.7285,2.55752 1.7285,4.21965 0,0.72079 -0.1276,1.41829 -0.3828,2.09269 -0.2559,0.6744 -0.5914,1.2513 -1.0064,1.7306 l 6.497,6.496 z M 5.94507,14.8536 c 1.37643,0 2.53883,-0.4738 3.48713,-1.4214 0.9476,-0.9476 1.4214,-2.11 1.4214,-3.48713 0,-1.37646 -0.4738,-2.5385 -1.4214,-3.48611 C 8.4846,5.51134 7.3226,5.03753 5.94611,5.03753 c -1.37646,0 -2.53885,0.47381 -3.48715,1.42143 -0.94762,0.94761 -1.42143,2.10965 -1.42143,3.48611 0,1.37643 0.47381,2.53853 1.42143,3.48613 0.94761,0.9476 2.10965,1.4224 3.48611,1.4224 z"
     fill="#222222"
     id="path1" />
</svg>
