<?xml version="1.0" encoding="UTF-8" standalone="no"?>
<svg
   width="18.000027"
   height="15.000023"
   viewBox="0 0 18.000026 15.000023"
   fill="none"
   version="1.1"
   id="svg1"
   xmlns="http://www.w3.org/2000/svg"
   xmlns:svg="http://www.w3.org/2000/svg">
  <defs
     id="defs1" />
  <path
     fill-rule="evenodd"
     clip-rule="evenodd"
     d="M 1.2374097,6.4574 C 6.0692297,4.34056 9.2912097,2.945 10.9033,2.27074 15.5063,0.34558102 16.4627,0.01116052 17.0861,1.1776434e-4 17.2232,-0.00231124 17.5298,0.03185806 17.7284,0.19389002 c 0.1677,0.136817 0.2138,0.321637 0.2359,0.451354 0.0221,0.129718 0.0496,0.42521598 0.0277,0.65611598 -0.2494,2.63539 -1.3287,9.03084 -1.8778,11.98244 -0.2324,1.249 -0.6898,1.6678 -1.1327,1.7088 -0.9626,0.089 -1.6935,-0.6397 -2.6257,-1.2542 C 10.897,12.7769 10.0729,12.1783 8.6569097,11.24 7.0204797,10.1556 8.0813097,9.55964 9.0138997,8.58562 9.2579697,8.33072 13.4988,4.45188 13.5809,4.10001 13.5912,4.05601 13.6007,3.89197 13.5038,3.80535 13.4069,3.71873 13.2639,3.74835 13.1606,3.77191 13.0143,3.8053 10.6839,5.35418 6.1693797,8.41854 5.5078997,8.87529 4.9087497,9.09783 4.3719297,9.08617 3.7801297,9.07331 2.6417497,8.7497 1.7954797,8.47308 0.75748976,8.1338 -0.06747624,7.95442 0.00436076,7.37821 0.04177676,7.07809 0.45279276,6.77115 1.2374097,6.4574 Z"
     fill="white"
     id="path1"
     style="vector-effect:non-scaling-stroke;fill:#ffffff;stroke:#000000;stroke-width:1;stroke-dasharray:none;-inkscape-stroke:hairline" />
</svg>
