<svg width="24" height="24" viewBox="0 0 24 24" fill="none" xmlns="http://www.w3.org/2000/svg">
<path d="M5.5 8.75H7.125H7.625V8.25V7.1875C7.625 6.81546 7.69525 6.47044 7.8336 6.14764C7.9746 5.81864 8.16762 5.5358 8.41316 5.29489C8.66223 5.05052 8.94851 4.85783 9.27505 4.71586C9.59124 4.57839 9.93636 4.50512 10.3156 4.5C10.8021 4.50051 11.2479 4.62125 11.6623 4.86335L11.9146 5.01073L11.9797 4.97266L12.4051 5.50068C12.5462 5.67585 12.6516 5.84068 12.7265 5.99482C12.8054 6.1572 12.8612 6.31509 12.8964 6.46884C12.9353 6.63937 12.9622 6.81246 12.9768 6.9883C12.9921 7.17201 13 7.3711 13 7.58594V8.25V8.75H13.5H15.625H16.125V8.25V7.1875C16.125 6.8337 16.0566 6.49308 15.9191 6.16995C15.7836 5.8516 15.5944 5.57135 15.3508 5.33472L15.0024 5.69336L15.3508 5.33472C15.1128 5.10353 14.8364 4.9191 14.5257 4.78031C14.2008 4.63513 13.8573 4.5625 13.5 4.5625C13.1943 4.5625 12.8993 4.61368 12.6189 4.71885L12.0472 4.93322L12.1668 4.86335C12.5836 4.61982 13.0252 4.5 13.5 4.5C13.872 4.5 14.2171 4.57025 14.5399 4.7086C14.8689 4.8496 15.1517 5.04262 15.3926 5.28816C15.637 5.53723 15.8297 5.82351 15.9716 6.15005C16.1091 6.46627 16.1824 6.81143 16.1875 7.19074V8.25V8.75H16.6875H18.3125V18.875C18.3125 19.1037 18.2697 19.3093 18.1879 19.4974C18.1019 19.6952 17.9851 19.8669 17.8364 20.0156C17.6894 20.1625 17.5166 20.2792 17.3135 20.3656C17.1148 20.4502 16.9056 20.4952 16.6824 20.5H7.125C6.89635 20.5 6.69071 20.4572 6.50258 20.3754C6.30477 20.2894 6.13314 20.1726 5.98441 20.0239C5.83569 19.8752 5.71886 19.7035 5.63285 19.5057C5.55074 19.3169 5.50489 19.1068 5.5 18.8701V8.75ZM7.6875 8.25V8.75H8.1875H12.4375H12.9375V8.25V7.1875C12.9375 6.8337 12.8691 6.49308 12.7316 6.16995C12.5961 5.8516 12.4069 5.57135 12.1633 5.33472C11.9253 5.10353 11.6489 4.9191 11.3382 4.78031L11.1343 5.23682L11.3382 4.78031C11.0133 4.63513 10.6698 4.5625 10.3125 4.5625C9.95456 4.5625 9.61235 4.63042 9.29136 4.76998C8.98006 4.90533 8.70345 5.09286 8.46481 5.33151C8.22438 5.57193 8.03668 5.85284 7.90174 6.16995C7.76552 6.49006 7.69433 6.82729 7.68759 7.17789L7.6875 7.17788V7.1875V8.25ZM15.0625 9.3125V8.8125H14.5625H6.0625H5.5625V9.3125V18.875C5.5625 19.0877 5.60224 19.2945 5.68697 19.4894C5.76623 19.6717 5.87574 19.8353 6.01607 19.9756L6.36963 19.6221L6.01608 19.9756C6.15611 20.1157 6.32009 20.2258 6.50163 20.309L6.70996 19.8545L6.50163 20.309C6.7014 20.4006 6.91395 20.4443 7.13357 20.4375H14.8447H15.7028L15.2797 19.691C15.1336 19.433 15.0625 19.1636 15.0625 18.875V9.3125ZM18.25 9.3125V8.8125H17.75H15.625H15.125V9.3125V18.875C15.125 19.0877 15.1647 19.2945 15.2495 19.4894C15.3287 19.6717 15.4382 19.8353 15.5786 19.9756C15.7186 20.1157 15.8826 20.2258 16.0641 20.309L16.2725 19.8545L16.0641 20.309C16.2642 20.4007 16.477 20.4444 16.6969 20.4375C16.9063 20.4363 17.1099 20.3965 17.3019 20.313C17.4842 20.2338 17.6478 20.1243 17.7881 19.9839L17.4346 19.6304L17.7881 19.9839C17.9282 19.8439 18.0383 19.6799 18.1215 19.4984C18.2131 19.2986 18.2568 19.086 18.25 18.8664V9.3125Z" stroke="#222222"/>
</svg>
