<?xml version="1.0" encoding="UTF-8" standalone="no"?>
<svg
   width="24"
   height="24"
   viewBox="0 0 24 24"
   fill="none"
   version="1.1"
   id="svg1"
   xmlns="http://www.w3.org/2000/svg"
   xmlns:svg="http://www.w3.org/2000/svg">
  <defs
     id="defs1" />
  <path
     fill-rule="evenodd"
     clip-rule="evenodd"
     d="M15.8945 13.6873C15.683 13.5819 14.6432 13.0727 14.4493 13.0025C14.2554 12.9323 14.1145 12.8971 13.9735 13.1078C13.8325 13.3186 13.4271 13.7927 13.3038 13.9332C13.1804 14.0736 13.057 14.0912 12.8455 13.9858C12.634 13.8805 11.9526 13.6582 11.1447 12.9411C10.516 12.383 10.0915 11.6937 9.96815 11.4829C9.8448 11.2722 9.95502 11.1583 10.0609 11.0534C10.156 10.9591 10.2724 10.8076 10.3781 10.6846C10.4839 10.5617 10.5191 10.4739 10.5896 10.3335C10.6601 10.193 10.6249 10.0701 10.572 9.96469C10.5191 9.85933 10.0962 8.82331 9.91993 8.40188C9.74828 7.99145 9.57389 8.04699 9.44408 8.04055C9.32084 8.03444 9.17972 8.03314 9.03872 8.03314C8.89772 8.03314 8.66861 8.08584 8.47471 8.29652C8.28086 8.50724 7.7345 9.01651 7.7345 10.0525C7.7345 11.0885 8.49236 12.0894 8.59811 12.2299C8.70386 12.3704 10.0895 14.4964 12.2111 15.4081C12.7157 15.625 13.1097 15.7545 13.4168 15.8515C13.9235 16.0117 14.3845 15.9891 14.7489 15.9349C15.1553 15.8745 16.0002 15.4257 16.1765 14.934C16.3527 14.4424 16.3527 14.0209 16.2999 13.9332C16.247 13.8454 16.106 13.7927 15.8945 13.6873ZM12.0356 18.9312H12.0327C10.7703 18.9307 9.5321 18.5932 8.45195 17.9552L8.19503 17.8035L5.53232 18.4986L6.24305 15.9149L6.07575 15.6501C5.37152 14.5353 4.99958 13.2468 5.00011 11.9238C5.00165 8.06341 8.15771 4.92269 12.0384 4.92269C13.9175 4.92342 15.6839 5.65267 17.0122 6.97607C18.3405 8.29951 19.0716 10.0587 19.0708 11.9295C19.0693 15.7902 15.9132 18.9312 12.0356 18.9312ZM18.0231 5.97049C16.425 4.37821 14.2998 3.50089 12.0355 3.5C7.37 3.5 3.57286 7.27871 3.57099 11.9234C3.57038 13.4081 3.96012 14.8573 4.70083 16.1348L3.5 20.5L7.98715 19.3286C9.22347 19.9997 10.6154 20.3534 12.0321 20.354H12.0356C16.7006 20.354 20.4981 16.5748 20.5 11.9301C20.5009 9.67921 19.6213 7.56273 18.0231 5.97049Z"
     fill="white"
     id="path1"
     style="fill:#cccccc" />
</svg>
