<?xml version="1.0" encoding="UTF-8" standalone="no"?>
<!-- Created with Inkscape (http://www.inkscape.org/) -->

<svg
   width="42.272373mm"
   height="10.000002mm"
   viewBox="0 0 42.272373 10.000002"
   version="1.1"
   id="svg1"
   xml:space="preserve"
   xmlns="http://www.w3.org/2000/svg"
   xmlns:svg="http://www.w3.org/2000/svg"><defs
     id="defs1" /><g
     id="layer1"
     transform="translate(-15.470923,-53.318914)"><path
       style="fill:#000000;stroke-width:0.236335"
       d="m 17.719783,63.207527 c -1.067567,-0.278681 -1.92735,-1.174382 -2.153998,-2.243979 -0.111856,-0.52787 -0.130896,-4.596512 -0.02424,-5.180427 0.203697,-1.115221 1.084133,-2.065549 2.178242,-2.351159 0.384355,-0.100334 1.628509,-0.107665 18.845597,-0.111033 20.458065,-0.004 18.911288,-0.03628 19.656638,0.410261 0.752078,0.450577 1.235097,1.096078 1.425909,1.905574 0.07498,0.318099 0.09462,0.865805 0.09536,2.658813 4.72e-4,1.252782 -0.02706,2.408147 -0.06194,2.595005 -0.148952,0.798107 -0.833526,1.718049 -1.547855,2.080027 -0.736438,0.373182 0.572771,0.34995 -19.55577,0.347024 -17.23053,-0.0025 -18.473543,-0.0098 -18.857941,-0.110106 z m 3.30524,-2.926845 c 0.368829,-0.09499 0.414094,-0.09423 0.750362,0.0126 0.834581,0.265125 1.668641,0.05814 2.252229,-0.558915 0.406946,-0.430288 0.544306,-0.803056 0.544306,-1.477147 0,-0.642717 -0.147267,-0.996611 -0.605673,-1.455484 -0.437466,-0.437911 -0.77127,-0.569193 -1.457824,-0.573345 -0.482564,-0.0029 -0.613174,0.02023 -0.916405,0.162385 -0.440873,0.206692 -0.836178,0.605221 -1.045029,1.05355 -0.21395,0.459279 -0.229053,1.202298 -0.03308,1.627436 l 0.13047,0.283037 -0.145654,0.529858 c -0.08011,0.291419 -0.14609,0.540171 -0.146624,0.552782 -5.44e-4,0.0126 0.06234,0.0052 0.139722,-0.01638 0.07738,-0.02163 0.317321,-0.08478 0.5332,-0.14038 z m 1.139483,-0.26797 c -0.12037,-0.02465 -0.309893,-0.09257 -0.421161,-0.150931 -0.171389,-0.08989 -0.245814,-0.09515 -0.487005,-0.03442 -0.156584,0.03943 -0.299539,0.05685 -0.317678,0.03871 -0.01814,-0.01815 -0.0029,-0.144627 0.03383,-0.281084 0.05735,-0.212969 0.0471,-0.291347 -0.07236,-0.553452 -0.314683,-0.690435 -0.122347,-1.550507 0.457783,-2.047077 0.506307,-0.433381 1.328501,-0.53777 1.902713,-0.241579 0.294051,0.15168 0.660782,0.522931 0.811013,0.821008 0.144432,0.286573 0.19149,0.876046 0.0969,1.213872 -0.229446,0.8195 -1.178129,1.404107 -2.004037,1.234951 z m 1.183431,-0.783878 c 0.233371,-0.120682 0.289395,-0.384592 0.106121,-0.4999 -0.268736,-0.169078 -0.417102,-0.178075 -0.569874,-0.03455 -0.173235,0.162747 -0.300212,0.117754 -0.67278,-0.238393 -0.26139,-0.24987 -0.2765,-0.298829 -0.139086,-0.450669 0.08581,-0.09482 0.0829,-0.1346 -0.02904,-0.395738 -0.141491,-0.330084 -0.293706,-0.376654 -0.501635,-0.153469 -0.286577,0.307606 -0.07258,0.883748 0.522966,1.407969 0.45765,0.40284 0.942949,0.540772 1.283331,0.364754 z m 10.828941,0.954547 c 0.08518,-0.159171 0.477752,-2.430462 0.535297,-3.097098 0.04572,-0.529662 -0.0088,-0.585543 -0.455104,-0.466182 -0.469325,0.125524 -3.974833,1.656066 -4.011427,1.751432 -0.04757,0.123962 0.124244,0.237859 0.542036,0.359313 0.627847,0.182519 0.671051,0.168583 1.76582,-0.569602 0.547524,-0.369185 1.014313,-0.652432 1.037309,-0.629435 0.023,0.023 -0.294201,0.378703 -0.704885,0.79046 -0.63186,0.633509 -0.736393,0.765412 -0.679701,0.85767 0.03685,0.05996 0.399448,0.341168 0.80578,0.624898 0.795188,0.555259 1.029542,0.631415 1.164875,0.378544 z M 52.457829,60.00885 c 0.653438,-0.107 0.784204,-0.39478 0.784204,-1.725827 0,-1.2888 -0.131804,-1.554388 -0.820819,-1.653998 -0.51749,-0.07481 -2.84551,-0.07449 -3.364095,4.72e-4 -0.682683,0.09868 -0.817505,0.377429 -0.817505,1.690252 0,1.275898 0.144353,1.597214 0.75759,1.686322 0.493908,0.07177 3.026913,0.07381 3.460625,0.0028 z m -2.217247,-1.68713 v -0.740377 l 0.623193,0.353568 c 0.342759,0.194464 0.623855,0.367638 0.624661,0.384834 7.09e-4,0.01721 -0.279633,0.191258 -0.623195,0.386809 l -0.624659,0.355544 z"
       id="path1" /></g></svg>
