<svg width="24" height="24" viewBox="0 0 24 24" fill="none" xmlns="http://www.w3.org/2000/svg">
<path d="M20.2653 21L13.7683 14.503C13.2495 14.945 12.6529 15.287 11.9785 15.5291C11.3041 15.7712 10.6263 15.8922 9.94495 15.8922C8.28351 15.8922 6.87731 15.3171 5.72634 14.1668C4.57536 13.0158 3.99988 11.61 3.99988 9.94922C3.99988 8.28848 4.57467 6.88192 5.72426 5.72957C6.87454 4.57652 8.28005 4 9.9408 4C11.6022 4 13.0091 4.57549 14.1615 5.72646C15.3138 6.87743 15.89 8.28398 15.89 9.94611C15.89 10.6669 15.7624 11.3644 15.5072 12.0388C15.2512 12.7132 14.9158 13.2901 14.5008 13.7694L20.9978 20.2654L20.2653 21ZM9.94495 14.8536C11.3214 14.8536 12.4838 14.3798 13.4321 13.4322C14.3797 12.4846 14.8535 11.3222 14.8535 9.94507C14.8535 8.56861 14.3797 7.40657 13.4321 6.45896C12.4845 5.51134 11.3224 5.03753 9.94599 5.03753C8.56953 5.03753 7.40714 5.51134 6.45883 6.45896C5.51122 7.40657 5.03741 8.56861 5.03741 9.94507C5.03741 11.3215 5.51122 12.4836 6.45883 13.4312C7.40645 14.3788 8.56849 14.8536 9.94495 14.8536Z" fill="#222222" fill-opacity="0.5"/>
</svg>
