<?xml version="1.0" encoding="UTF-8" standalone="no"?>
<!-- Created with Inkscape (http://www.inkscape.org/) -->

<svg
   width="161.40479mm"
   height="64.541267mm"
   viewBox="0 0 161.40479 64.541267"
   version="1.1"
   id="svg1"
   xml:space="preserve"
   xmlns="http://www.w3.org/2000/svg"
   xmlns:svg="http://www.w3.org/2000/svg"><defs
     id="defs1" /><g
     id="layer1"
     transform="translate(-23.147684,-12.363461)"><path
       style="fill:#000000;stroke-width:0.530397"
       d="M 62.720367,76.776221 C 62.566002,76.712367 62.281829,76.490446 62.088864,76.283062 61.75221,75.921245 61.736201,75.821291 61.69284,73.81186 l -0.0452,-2.094121 h 0.36096 0.360937 l 0.0023,1.789256 c 0.0023,1.979081 0.115262,2.375032 0.766826,2.687447 0.351347,0.168463 0.488936,0.168463 0.96382,0 0.877327,-0.311226 1.073966,-0.828588 1.073966,-2.825589 v -1.651114 h 0.350844 0.350833 v 2.304026 c 0,1.267221 0.03834,2.403932 0.08514,2.526027 0.06419,0.167434 -0.0046,0.221975 -0.28067,0.221975 -0.296681,0 -0.365847,-0.06637 -0.365847,-0.350832 0,-0.192966 -0.06317,-0.350839 -0.140335,-0.350839 -0.07713,0 -0.140336,0.05748 -0.140336,0.127811 0,0.205221 -1.173149,0.715008 -1.623062,0.705292 -0.226473,-0.0045 -0.538076,-0.06111 -0.692453,-0.124978 z m 7.42199,-0.06717 c -0.240194,-0.104599 -0.571744,-0.33502 -0.736752,-0.512147 l -0.300034,-0.322037 v 0.447459 c 0,0.383733 -0.05001,0.447464 -0.350832,0.447464 H 68.403896 V 72.700099 68.63041 h 0.350843 0.350832 v 1.98914 1.98914 l 0.315746,-0.287599 c 0.52376,-0.477045 0.889527,-0.603325 1.747468,-0.603325 1.006323,0 1.720015,0.426413 2.161242,1.291298 0.431363,0.845549 0.334937,2.126986 -0.214228,2.846981 -0.698003,0.915141 -1.983473,1.283894 -2.973442,0.853001 z m 1.910234,-0.76694 c 0.778635,-0.543258 1.047839,-1.713297 0.607642,-2.640948 -0.348212,-0.733817 -0.938746,-1.049522 -1.838675,-0.982992 -0.893806,0.06612 -1.4749,0.540514 -1.6874,1.377649 -0.46115,1.816825 1.438394,3.278896 2.918433,2.246291 z m 4.11385,0.762613 c -0.462558,-0.201183 -0.886174,-0.834422 -0.886174,-1.324699 0,-0.945942 0.811103,-1.491879 2.435104,-1.639042 1.047119,-0.09488 1.073257,-0.106438 1.073257,-0.474439 0,-0.218857 -0.144364,-0.512803 -0.34391,-0.700265 -0.296028,-0.278101 -0.452019,-0.314115 -1.120496,-0.258682 -0.445794,0.03697 -0.885934,0.163356 -1.033283,0.296702 -0.198013,0.1792 -0.294759,0.194242 -0.423181,0.06582 -0.277878,-0.277874 -0.19039,-0.467965 0.329444,-0.715867 0.309109,-0.147398 0.843053,-0.236482 1.417383,-0.236482 0.860803,0 0.952834,0.03135 1.398581,0.477128 l 0.477138,0.477138 v 1.826896 c 0,1.004799 0.03834,1.926808 0.08514,2.048891 0.0642,0.167434 -0.0046,0.221976 -0.280671,0.221976 -0.302379,0 -0.365846,-0.06455 -0.365846,-0.372588 0,-0.348867 -0.01602,-0.358145 -0.250722,-0.145679 -0.358409,0.324352 -1.217712,0.65954 -1.674366,0.653109 -0.214731,-0.0034 -0.591576,-0.09292 -0.837434,-0.199912 z m 1.696177,-0.55161 c 0.617519,-0.258015 0.92601,-0.724252 0.92601,-1.399516 v -0.550407 l -0.889286,0.08303 c -1.072204,0.100121 -1.55693,0.302276 -1.752149,0.730736 -0.216711,0.475635 -0.04051,0.916962 0.451549,1.131168 0.556913,0.242436 0.694284,0.242975 1.263876,0.0046 z m 10.372557,0.55161 c -0.462545,-0.201183 -0.886163,-0.834422 -0.886163,-1.324699 0,-0.945942 0.811093,-1.491879 2.435108,-1.639042 1.04711,-0.09488 1.073249,-0.106438 1.073249,-0.474439 0,-0.218857 -0.144357,-0.512803 -0.343902,-0.700265 -0.296032,-0.278101 -0.452021,-0.314115 -1.120501,-0.258682 -0.445793,0.03697 -0.885945,0.163356 -1.033297,0.296702 -0.197999,0.1792 -0.294743,0.194242 -0.423171,0.06582 -0.277876,-0.277874 -0.190396,-0.467965 0.329452,-0.715867 0.309107,-0.147398 0.843034,-0.236482 1.417369,-0.236482 0.8608,0 0.952841,0.03135 1.398596,0.477128 l 0.477116,0.477138 v 1.826896 c 0,1.004799 0.0383,1.926808 0.0851,2.048891 0.0642,0.167434 -0.005,0.221976 -0.28067,0.221976 -0.302378,0 -0.365853,-0.06455 -0.365853,-0.372588 0,-0.348867 -0.01602,-0.358145 -0.250732,-0.145679 -0.358398,0.324352 -1.2177,0.65954 -1.674367,0.653109 -0.214724,-0.0034 -0.591572,-0.09292 -0.837431,-0.199912 z m 1.696183,-0.55161 c 0.617511,-0.258015 0.926011,-0.724252 0.926011,-1.399516 v -0.550407 l -0.889291,0.08303 c -1.072197,0.100121 -1.556918,0.302276 -1.75214,0.730736 -0.216724,0.475635 -0.04048,0.916962 0.451538,1.131168 0.556909,0.242436 0.694297,0.242975 1.263882,0.0046 z m 20.783292,0.495501 c -0.79866,-0.363296 -0.97996,-0.615973 -0.65378,-0.911161 0.24074,-0.217871 0.27385,-0.214751 0.51171,0.0481 0.37897,0.418756 1.11838,0.580858 1.73357,0.380041 0.42485,-0.138674 0.52074,-0.241544 0.55541,-0.595785 0.0538,-0.550361 -0.23989,-0.808528 -1.2477,-1.096633 -1.16303,-0.332481 -1.53071,-0.673551 -1.53071,-1.419927 0,-0.507584 0.0718,-0.669264 0.43178,-0.972154 0.58722,-0.494117 1.825,-0.517491 2.51912,-0.04757 0.53075,0.359339 0.58383,0.50494 0.25876,0.709983 -0.17237,0.108727 -0.32356,0.06938 -0.61534,-0.160121 -0.43377,-0.341199 -1.28859,-0.408531 -1.63572,-0.128856 -0.6754,0.544197 -0.21568,1.208507 1.02846,1.486139 1.08072,0.241162 1.52129,0.665372 1.52129,1.464795 0,0.455278 -0.0814,0.690115 -0.31575,0.909531 -0.67536,0.632659 -1.63028,0.757053 -2.5611,0.333644 z m 12.18307,0.05607 c -0.46255,-0.20117 -0.88616,-0.834417 -0.88616,-1.324695 0,-0.945941 0.81109,-1.491879 2.43511,-1.639041 1.0471,-0.09488 1.07323,-0.106439 1.07323,-0.47444 0,-0.218857 -0.14434,-0.512802 -0.34391,-0.700265 -0.29601,-0.2781 -0.45201,-0.314114 -1.12048,-0.25868 -0.4458,0.03697 -0.88593,0.163354 -1.0333,0.296702 -0.198,0.1792 -0.29474,0.194241 -0.42316,0.06582 -0.27789,-0.277872 -0.1904,-0.467963 0.32945,-0.715866 0.3091,-0.147397 0.84304,-0.236482 1.41736,-0.236482 0.8608,0 0.95286,0.03135 1.39857,0.477129 l 0.47716,0.477136 v 1.826899 c 0,1.004799 0.0383,1.926802 0.0851,2.048885 0.0642,0.167434 -0.005,0.221975 -0.28068,0.221975 -0.30236,0 -0.36584,-0.06455 -0.36584,-0.372587 0,-0.348861 -0.016,-0.35814 -0.25071,-0.14568 -0.35843,0.324352 -1.21771,0.659541 -1.67438,0.653109 -0.21474,-0.0034 -0.59158,-0.09304 -0.83744,-0.199911 z m 1.69617,-0.551606 c 0.61752,-0.258014 0.92601,-0.724251 0.92601,-1.399515 v -0.550407 l -0.88928,0.08303 c -1.0722,0.100122 -1.55692,0.302277 -1.75215,0.730735 -0.21671,0.475637 -0.0405,0.916963 0.45155,1.131169 0.55691,0.242433 0.69429,0.242971 1.26387,0.0046 z m 17.83048,0.501883 c -1.9004,-0.892305 -2.09716,-3.444818 -0.35602,-4.618175 0.36983,-0.249236 0.66988,-0.319084 1.37051,-0.319084 1.18135,0 1.87232,0.349145 2.36934,1.197237 0.32261,0.550506 0.36528,0.756571 0.31623,1.527061 -0.0928,1.456904 -0.91734,2.282597 -2.41195,2.415264 -0.52092,0.04624 -0.87833,-0.0103 -1.28811,-0.202303 z m 2.18099,-0.712915 c 0.19295,-0.134627 0.46125,-0.461315 0.5962,-0.725972 0.69132,-1.355768 -0.1979,-2.938437 -1.64871,-2.934446 -0.73089,0.0023 -1.17741,0.238777 -1.58697,0.841452 -0.27794,0.409024 -0.32312,0.621299 -0.27591,1.296191 0.0459,0.655556 0.13283,0.886765 0.46323,1.231638 0.68207,0.711915 1.67935,0.830324 2.45216,0.291137 z m 9.86754,0.762615 c -0.46254,-0.201182 -0.88615,-0.834425 -0.88615,-1.324702 0,-0.945941 0.81108,-1.49188 2.4351,-1.639041 1.0471,-0.09488 1.07324,-0.106439 1.07324,-0.474441 0,-0.218857 -0.14435,-0.512801 -0.3439,-0.700264 -0.29603,-0.278101 -0.45202,-0.314115 -1.1205,-0.258682 -0.44579,0.03697 -0.88593,0.163356 -1.03328,0.296703 -0.19801,0.179199 -0.29476,0.194241 -0.42318,0.06582 -0.27788,-0.277874 -0.19039,-0.467965 0.32945,-0.715868 0.3091,-0.147397 0.84305,-0.236481 1.41738,-0.236481 0.8608,0 0.95283,0.03135 1.39856,0.477129 l 0.47714,0.477135 v 1.826899 c 0,1.004798 0.0383,1.9268 0.0851,2.048895 0.0642,0.167433 -0.005,0.221974 -0.28068,0.221974 -0.30237,0 -0.36584,-0.06466 -0.36584,-0.372586 0,-0.348872 -0.016,-0.35815 -0.25073,-0.145692 -0.3584,0.324363 -1.2177,0.659541 -1.67436,0.653109 -0.21474,-0.0034 -0.59159,-0.09292 -0.83744,-0.1999 z m 1.69619,-0.551614 c 0.61751,-0.258013 0.926,-0.724252 0.926,-1.399515 v -0.550407 l -0.88929,0.08303 c -1.07219,0.100122 -1.55691,0.302277 -1.75213,0.730735 -0.21672,0.475637 -0.0405,0.916964 0.45154,1.13117 0.5569,0.242428 0.69429,0.242966 1.26388,0.0046 z M 55.773821,72.980707 v -3.789022 h 0.421006 0.421006 v 3.438188 3.438189 h 1.754174 1.754175 v 0.350838 0.350832 h -2.175181 -2.17518 z m 27.457254,3.683777 c -0.154124,-0.250311 -1.916435,-4.661559 -1.916435,-4.797043 0,-0.08236 0.152569,-0.149737 0.339034,-0.149737 0.30397,0 0.40764,0.177851 1.002064,1.719091 1.008829,2.61571 1.007856,2.613726 1.116492,2.280426 0.05035,-0.154364 0.417836,-1.101624 0.81671,-2.105013 0.670034,-1.6855 0.755062,-1.827769 1.117166,-1.869328 0.391412,-0.04492 0.391676,-0.04431 0.201765,0.420998 -0.104596,0.256296 -0.564418,1.397464 -1.021851,2.535919 -0.783705,1.950508 -0.853569,2.069935 -1.210914,2.069935 -0.208574,0 -0.408383,-0.04738 -0.444031,-0.105282 z m 13.941336,-3.683777 v -3.789022 h 0.60263 0.60265 l 1.25486,3.082258 c 0.690179,1.69524 1.298619,3.037186 1.352109,2.9821 0.0535,-0.05506 0.63356,-1.426319 1.28905,-3.047176 l 1.19181,-2.947017 0.57231,-0.04318 0.57229,-0.04317 v 3.79709 3.797091 h -0.34825 -0.34824 l -0.0376,-3.259978 -0.0376,-3.259973 -1.34193,3.224656 c -0.84315,2.026108 -1.42214,3.240113 -1.55774,3.266227 -0.1606,0.0309 -0.55332,-0.776426 -1.534919,-3.155549 l -1.31911,-3.197103 -0.0376,3.190863 -0.0377,3.190857 h -0.41837 -0.41837 z m 9.963729,1.26301 v -2.526013 h 0.35084 0.35083 v 2.526013 2.526015 h -0.35083 -0.35084 z m 8.56038,-1.543679 v -4.069689 h 0.35083 0.35084 l 0.005,1.999758 c 0.004,1.427229 0.0452,1.92945 0.14731,1.754173 0.36303,-0.623283 1.83507,-0.880138 2.64467,-0.461465 0.64729,0.334716 0.85244,1.07972 0.85244,3.09558 v 1.751337 h -0.35083 -0.35085 v -1.618353 c 0,-2.287266 -0.2944,-2.872346 -1.44535,-2.872346 -0.62844,0 -1.17418,0.44038 -1.35571,1.093974 -0.0794,0.285933 -0.14473,1.167161 -0.14517,1.958299 l -5.3e-4,1.438426 h -0.35083 -0.35084 z m 13.05108,1.533916 v -2.535775 l 0.31485,0.04483 c 0.22036,0.03144 0.34171,0.171178 0.40439,0.46585 0.0493,0.231552 0.097,0.341132 0.10619,0.243519 0.0325,-0.347425 0.90297,-0.733621 1.65478,-0.734167 0.57497,-4.17e-4 0.81495,0.0743 1.15365,0.359332 0.57302,0.482165 0.71482,1.08512 0.71576,3.043245 l 5.3e-4,1.648937 h -0.35085 -0.35083 l -5.2e-4,-1.5086 c -7.6e-4,-2.346047 -0.30037,-2.9821 -1.40257,-2.9821 -1.15598,0 -1.54367,0.739021 -1.54367,2.942512 v 1.548188 h -0.35084 -0.35083 z m 6.73604,-1.533916 v -4.069689 h 0.34779 0.34782 l 0.0382,2.657329 0.0381,2.657337 1.19284,-1.107555 c 1.01237,-0.939988 1.26716,-1.108107 1.68402,-1.111227 l 0.49116,-0.0038 -1.263,1.190353 -1.26302,1.190361 1.40336,1.330402 1.40334,1.330404 -0.58473,0.0023 c -0.55668,0.0034 -0.64125,-0.05767 -1.76328,-1.260184 -0.64819,-0.694659 -1.22182,-1.26301 -1.27469,-1.26301 -0.0529,0 -0.0961,0.568351 -0.0961,1.26301 0,1.25365 -0.004,1.262999 -0.35085,1.262999 h -0.35082 z m 13.98516,3.964446 c -0.15412,-0.250311 -1.91643,-4.661559 -1.91643,-4.797043 0,-0.08236 0.15258,-0.149737 0.33904,-0.149737 0.30396,0 0.40763,0.177851 1.00206,1.719091 1.00883,2.61571 1.00785,2.613726 1.11649,2.280426 0.0503,-0.154364 0.41784,-1.101624 0.81672,-2.105013 0.67002,-1.6855 0.75505,-1.827769 1.11715,-1.869328 0.39142,-0.04492 0.39169,-0.04431 0.20178,0.420998 -0.1046,0.256296 -0.56442,1.397464 -1.02186,2.535919 -0.78371,1.950508 -0.85358,2.069935 -1.2109,2.069935 -0.20859,0 -0.4084,-0.04738 -0.44405,-0.105282 z m -42.42958,-6.579701 c -0.11608,-0.302534 0.13322,-0.682596 0.44776,-0.682596 0.13754,0 0.31436,0.101931 0.39295,0.226508 0.21439,0.339889 0.0162,0.685662 -0.39295,0.685662 -0.20352,0 -0.39791,-0.09967 -0.44776,-0.229574 z M 23.972153,65.836027 c -0.706033,-0.320621 -0.999777,-0.949252 -0.719133,-1.53899 0.211751,-0.44497 1.289103,-1.03851 3.075055,-1.694127 0.719813,-0.264248 1.326075,-0.491208 1.347251,-0.504364 0.02118,-0.01319 -0.06601,-0.396027 -0.193747,-0.85082 -0.357983,-1.274553 -0.432318,-6.975361 -0.132468,-10.159111 1.023468,-10.86704 3.837978,-24.542365 7.119433,-34.592374 1.096548,-3.358366 1.297817,-3.706965 2.301059,-3.985512 0.763523,-0.211988 1.777962,-0.192257 2.096655,0.04075 0.257721,0.188456 0.237111,0.288045 -0.602582,2.911936 -3.492209,10.912544 -6.370162,23.975841 -7.55481,34.291998 -0.309461,2.694843 -0.353873,8.543312 -0.07534,9.92178 0.296743,1.468612 0.244624,1.442724 2.073552,1.029868 1.380889,-0.311721 3.342749,-0.674021 12.682028,-2.342055 4.399042,-0.785684 8.570295,-0.696736 10.449859,0.222848 0.825144,0.403707 1.869791,1.384896 1.991736,1.870743 0.183352,0.73054 -0.937545,1.576057 -2.089363,1.576057 -0.566548,0 -0.751068,-0.07468 -1.211234,-0.490444 -0.731935,-0.661259 -1.314882,-0.881691 -2.768507,-1.046864 -2.243969,-0.254977 -6.179731,0.244298 -11.003524,1.395864 -1.273532,0.304034 -4.178449,0.931536 -6.455371,1.394464 -4.28276,0.870739 -5.945905,1.342157 -8.017581,2.27261 -1.37934,0.619496 -1.519232,0.636174 -2.312962,0.275722 z M 153.67807,62.715414 c -0.66763,-0.667629 -0.85561,-1.644601 -0.74453,-3.869427 0.10082,-2.020163 0.3817,-4.022889 0.93038,-6.6347 0.2189,-1.041986 0.46981,-2.462868 0.5576,-3.15752 0.0878,-0.694654 0.50225,-3.504848 0.92102,-6.244868 1.52446,-9.974231 1.68239,-11.61425 1.68239,-17.471612 0,-5.199867 -0.13372,-6.471859 -0.8451,-8.038963 -0.77938,-1.716895 -2.41182,-1.355587 -4.70773,1.041985 -1.22851,1.2829 -1.94456,2.372746 -3.01489,4.588697 -1.53824,3.18471 -3.54295,9.077624 -6.09497,17.916383 -2.13483,7.393822 -2.6947,9.006345 -3.32024,9.562797 -0.70049,0.623117 -2.25778,0.668887 -2.63506,0.07744 -0.4047,-0.634418 -0.72986,-3.439795 -1.34523,-11.606092 -0.36263,-4.811854 -1.1501,-10.892261 -1.69935,-13.121245 -0.35791,-1.452489 -1.76685,-5.687577 -1.98823,-5.976365 -0.73509,-0.958922 -1.77932,-0.323908 -3.27865,1.993813 -1.0415,1.609988 -1.87463,3.709957 -2.92886,7.382439 -0.81903,2.853123 -1.32204,5.200042 -2.15874,10.072191 -0.38439,2.23833 -1.015,5.55373 -1.40134,7.367548 -1.28484,6.032048 -1.61168,9.530003 -1.1549,12.360328 0.15358,0.951592 0.15929,1.309794 0.0272,1.709889 -0.22149,0.671105 -1.07854,1.596014 -1.71833,1.854376 -0.46759,0.18882 -0.54118,0.185645 -0.80772,-0.03477 -0.93834,-0.776043 -0.71807,-7.761076 0.47233,-14.977637 0.69994,-4.24327 2.8506,-15.093821 3.53255,-17.822437 1.41592,-5.665377 3.56155,-10.262094 5.52749,-11.841898 1.60533,-1.290018 3.70962,-1.77804 5.07069,-1.175969 2.40456,1.063646 4.05735,4.826531 5.02825,11.447726 0.58883,4.015581 1.26339,11.645658 1.26679,14.328859 3.8e-4,0.3023 0.0297,0.520642 0.0651,0.485203 0.0355,-0.03544 0.57748,-1.956268 1.20453,-4.268498 2.08775,-7.698583 3.83538,-13.115853 5.3915,-16.712549 1.9635,-4.538268 4.19882,-7.508712 6.50471,-8.643896 0.77839,-0.383204 1.09441,-0.455262 2.18714,-0.498738 1.02589,-0.04082 1.44079,0.0068 2.10796,0.240626 2.20402,0.773255 3.21517,2.023775 3.96918,4.908747 0.302,1.155505 0.36215,1.755953 0.42576,4.249124 0.0449,1.759035 0.008,3.612056 -0.0923,4.701198 -0.27231,2.940966 -1.10316,8.883475 -1.69346,12.11229 -1.62179,8.870599 -2.4526,14.508824 -2.65562,18.021797 -0.14664,2.537441 -0.0243,3.625856 0.4651,4.136636 0.20053,0.209306 0.36459,0.476606 0.36459,0.594002 0,0.506274 -1.18937,1.215969 -2.24796,1.34134 -0.64572,0.07648 -0.71946,0.05135 -1.16906,-0.398238 z m -57.369929,-7.63066 c -1.05078,-0.570728 -1.2933,-2.084693 -0.56397,-3.520889 1.06121,-2.089721 2.94244,-3.984444 6.986109,-7.036157 l 1.13736,-0.858356 0.093,-0.791872 c 0.10551,-0.897688 -0.0638,-1.69143 -0.47153,-2.209671 -0.42843,-0.544665 -0.88741,-0.58945 -1.80174,-0.175799 -0.63843,0.288834 -1.20189,0.776051 -2.843879,2.459089 -1.25628,1.287687 -2.24437,2.181064 -2.55659,2.311517 -0.7403,0.309322 -1.80236,0.276375 -2.24213,-0.06953 -1.55001,-1.21924 -1.02316,-6.388727 1.49543,-14.672695 1.33459,-4.389636 2.89699,-8.621643 3.33294,-9.027796 0.56883,-0.529941 2.532549,-0.880206 2.993199,-0.533887 0.26633,0.200232 0.25594,0.243374 -0.39841,1.653181 -1.38257,2.978768 -2.921039,8.225646 -3.658949,12.478649 -0.31665,1.825081 -0.77699,5.324344 -0.77699,5.906373 0,0.146435 0.25634,-0.01636 0.73676,-0.467971 1.37312,-1.290708 2.838239,-2.39421 3.753939,-2.827402 1.19643,-0.565995 2.73472,-0.675742 3.66678,-0.261598 1.3227,0.58771 2.04713,1.559258 2.18922,2.936014 0.0431,0.417399 0.11736,0.740883 0.16504,0.71885 0.0477,-0.02204 0.70525,-0.344765 1.46124,-0.717169 1.91128,-0.941534 3.99015,-1.236645 3.85747,-0.547598 -0.0255,0.132454 -0.92944,0.777839 -2.02998,1.44936 -1.09119,0.665819 -2.35349,1.496727 -2.8051,1.84647 -0.78285,0.606242 -0.83961,0.693343 -1.21742,1.867948 -0.87232,2.712089 -2.74656,6.119648 -4.06936,7.398481 -1.00918,0.975653 -2.832949,2.212776 -3.854349,2.614521 -0.86086,0.338616 -2.03301,0.374054 -2.57816,0.07795 z m 3.981479,-3.685978 c 0.83419,-1.102768 2.39682,-3.963116 1.81391,-3.32033 -0.48071,0.530108 -1.90133,2.429164 -2.178029,2.911578 -0.76202,1.328526 -0.52929,1.589797 0.364119,0.408752 z m 70.50984,-2.900544 c -0.75617,-0.26961 -1.16274,-0.699493 -1.52056,-1.607677 -0.26002,-0.659941 -0.31012,-1.072109 -0.31702,-2.608152 -0.0103,-2.275435 0.49481,-5.427388 0.95041,-5.931648 0.5483,-0.606863 2.41845,-0.944684 2.97535,-0.537462 0.26389,0.192969 0.26418,0.228809 0.0151,1.859428 -0.66562,4.358007 -0.62624,6.378807 0.13402,6.876953 0.31569,0.206844 0.39334,0.205224 0.98445,-0.02054 0.99801,-0.381151 2.463,-1.444708 4.7555,-3.452396 2.58382,-2.262848 3.04177,-2.583165 4.30942,-3.014319 1.16969,-0.397838 1.35471,-0.41438 1.46353,-0.130811 0.0546,0.142043 -0.68545,0.953659 -2.28483,2.506123 -3.50575,3.402871 -4.73874,4.390242 -6.74946,5.404894 -1.58135,0.797984 -3.54927,1.071563 -4.71594,0.655585 z M 64.180252,47.985908 C 63.020561,47.8141 62.302348,47.274342 61.863981,46.24517 c -0.292709,-0.687177 -0.327258,-2.703197 -0.06729,-3.927442 0.328288,-1.546125 1.278708,-4.263629 1.642266,-4.6957 0.601153,-0.714421 2.569692,-1.117711 3.060426,-0.626973 0.121281,0.12129 0.220522,0.241245 0.220522,0.266581 0,0.02537 -0.228373,0.636538 -0.507487,1.358237 -1.023396,2.646127 -1.3698,4.656095 -1.024266,5.943199 0.398473,1.48435 1.288023,1.017249 3.510625,-1.843432 1.319986,-1.69893 1.90117,-2.234537 2.640795,-2.433702 0.578816,-0.155857 1.598526,-0.01568 1.87145,0.257227 0.07816,0.07818 0.190208,0.669211 0.248913,1.313376 0.166108,1.82234 0.608754,2.641213 1.750181,3.237684 0.752498,0.393224 2.193879,0.379834 3.438198,-0.03196 1.613118,-0.53382 4.236059,-1.909947 6.320044,-3.315824 2.13801,-1.442316 3.48422,-2.1103 4.546414,-2.255887 1.142991,-0.156668 0.868604,0.278479 -1.288665,2.043718 -4.590174,3.756029 -8.029642,5.483368 -11.742926,5.897421 -2.912034,0.324702 -5.124281,-0.582316 -5.70392,-2.338611 -0.08342,-0.252923 -0.203482,-0.459866 -0.266676,-0.459866 -0.06317,0 -0.317084,0.236815 -0.56419,0.526254 -1.713674,2.007316 -3.938475,3.097481 -5.768121,2.826416 z M 169.80536,33.185978 c -0.28585,-0.285841 -0.27824,-0.456671 0.0606,-1.362183 0.30453,-0.81395 0.82319,-1.400295 1.44716,-1.63605 0.5053,-0.190909 1.99668,-0.193446 2.35069,-0.0046 0.31549,0.168846 0.35984,0.729342 0.0763,0.964642 -0.10734,0.08905 -0.32432,0.462268 -0.48224,0.829347 -0.33133,0.770234 -0.60691,1.044789 -1.27317,1.268555 -0.70772,0.237685 -1.91471,0.204269 -2.1793,-0.06029 z"
       id="path1" /></g></svg>
