<?xml version="1.0" encoding="UTF-8" standalone="no"?>
<svg
   width="15"
   height="15"
   viewBox="0 0 15 15"
   fill="none"
   version="1.1"
   id="svg1"
   xmlns="http://www.w3.org/2000/svg"
   xmlns:svg="http://www.w3.org/2000/svg">
  <defs
     id="defs1" />
  <circle
     cx="7.5"
     cy="7.5"
     r="6.75"
     stroke="#222222"
     stroke-opacity="0.5"
     stroke-width="0.5"
     id="circle1" />
  <path
     d="m 11.5,7.499975 c 0,0.04613 -0.0183,0.09036 -0.0509,0.12298 -0.0327,0.03261 -0.0769,0.05094 -0.123,0.05094 H 7.67391 v -0.17388 c 0,0.04613 0.1673,0.09036 0.13468,0.12298 C 7.77598,7.655605 7.54612,7.673935 7.5,7.673935 7.45388,7.673935 7.40964,7.655605 7.37702,7.622995 7.34441,7.590375 7.32609,7.546145 7.32609,7.500015 L 7.75,7.673895 H 3.67391 c -0.04612,0 -0.09036,-0.01833 -0.12297,-0.05094 C 3.51832,7.590335 3.5,7.546105 3.5,7.499975 c 0,-0.04612 0.01832,-0.09036 0.05094,-0.12297 0.03261,-0.03262 0.07685,-0.05094 0.12297,-0.05094 h 4 L 8,7.499995 l -0.67391,2e-5 c 0,-0.04612 0.01832,-0.09038 0.05093,-0.123 0.03262,-0.03261 0.07686,-0.05093 0.12298,-0.05093 0.04612,0 0.09036,0.01832 0.12298,0.05093 0.03261,0.03262 0.05093,0.07688 0.05093,0.123 v -0.17395 h 3.65219 c 0.0461,0 0.0903,0.01832 0.123,0.05094 0.0326,0.03261 0.0509,0.07685 0.0509,0.12297 z"
     fill="#222222"
     fill-opacity="0.5"
     id="path1" />
</svg>
