<?xml version="1.0" encoding="UTF-8" standalone="no"?>
<svg
   width="15"
   height="15"
   viewBox="0 0 15 15"
   fill="none"
   version="1.1"
   id="svg1"
   xmlns="http://www.w3.org/2000/svg"
   xmlns:svg="http://www.w3.org/2000/svg">
  <defs
     id="defs1" />
  <circle
     cx="7.5"
     cy="7.5"
     r="6.75"
     stroke="#222222"
     stroke-opacity="0.5"
     stroke-width="0.5"
     id="circle1" />
  <path
     d="m 11.5,7.5 c 0,0.04612 -0.0183,0.09036 -0.0509,0.12298 -0.0327,0.03261 -0.0769,0.05093 -0.123,0.05093 H 7.67391 v 3.65219 c 0,0.0461 -0.01832,0.0903 -0.05093,0.123 C 7.59036,11.4817 7.54612,11.5 7.5,11.5 7.45388,11.5 7.40964,11.4817 7.37702,11.4491 7.34441,11.4164 7.32609,11.3722 7.32609,11.3261 V 7.67391 H 3.67391 C 3.62779,7.67391 3.58355,7.65559 3.55094,7.62298 3.51832,7.59036 3.5,7.54612 3.5,7.5 3.5,7.45388 3.51832,7.40964 3.55094,7.37702 3.58355,7.34441 3.62779,7.32609 3.67391,7.32609 H 7.32609 V 3.67391 c 0,-0.04612 0.01832,-0.09036 0.05093,-0.12297 C 7.40964,3.51832 7.45388,3.5 7.5,3.5 c 0.04612,0 0.09036,0.01832 0.12298,0.05094 0.03261,0.03261 0.05093,0.07685 0.05093,0.12297 v 3.65218 h 3.65219 c 0.0461,0 0.0903,0.01832 0.123,0.05093 C 11.4817,7.40964 11.5,7.45388 11.5,7.5 Z"
     fill="#222222"
     fill-opacity="0.5"
     id="path1" />
</svg>
