<?xml version="1.0" encoding="UTF-8" standalone="no"?>
<svg
   width="15"
   height="15"
   viewBox="0 0 15 15"
   fill="none"
   version="1.1"
   id="svg1"
   xmlns="http://www.w3.org/2000/svg"
   xmlns:svg="http://www.w3.org/2000/svg">
  <defs
     id="defs1" />
  <circle
     cx="7.5"
     cy="7.5"
     r="6.75"
     stroke="#222222"
     stroke-opacity="0.5"
     stroke-width="0.5"
     id="circle1"
     style="stroke-width:0.9;stroke-dasharray:none" />
  <path
     id="path2"
     style="color:#000000;fill:#222222;fill-opacity:0.501961;stroke-linecap:round;-inkscape-stroke:none"
     d="M 7.5 2.9746094 A 0.44999999 0.44999999 0 0 0 7.0507812 3.4257812 L 7.0507812 7.0507812 L 3.4257812 7.0507812 A 0.44999999 0.44999999 0 0 0 2.9746094 7.5 A 0.44999999 0.44999999 0 0 0 3.4257812 7.9492188 L 7.0507812 7.9492188 L 7.0507812 11.574219 A 0.44999999 0.44999999 0 0 0 7.5 12.025391 A 0.44999999 0.44999999 0 0 0 7.9492188 11.574219 L 7.9492188 7.9492188 L 11.574219 7.9492188 A 0.44999999 0.44999999 0 0 0 12.025391 7.5 A 0.44999999 0.44999999 0 0 0 11.574219 7.0507812 L 7.9492188 7.0507812 L 7.9492188 3.4257812 A 0.44999999 0.44999999 0 0 0 7.5 2.9746094 z " />
</svg>
