<svg width="18" height="20" viewBox="0 0 18 20" fill="none" xmlns="http://www.w3.org/2000/svg">
<path d="M9 3.10938C7.4023 3.10938 5.84048 3.58315 4.51204 4.47078C3.1836 5.35842 2.1482 6.62005 1.53679 8.09614C0.925375 9.57222 0.765401 11.1965 1.0771 12.7635C1.38879 14.3305 2.15816 15.7699 3.28791 16.8996C4.41765 18.0293 5.85704 18.7987 7.42404 19.1104C8.99104 19.4221 10.6153 19.2621 12.0914 18.6507C13.5675 18.0393 14.8291 17.0039 15.7167 15.6755C16.6044 14.347 17.0781 12.7852 17.0781 11.1875C17.0756 9.04582 16.2237 6.99257 14.7093 5.47817C13.1949 3.96377 11.1417 3.11188 9 3.10938ZM9 18.2344C7.60626 18.2344 6.24382 17.8211 5.08497 17.0468C3.92612 16.2724 3.0229 15.1719 2.48954 13.8842C1.95618 12.5966 1.81663 11.1797 2.08853 9.81272C2.36044 8.44576 3.03159 7.19013 4.01711 6.20461C5.00263 5.21908 6.25827 4.54793 7.62523 4.27603C8.99219 4.00412 10.4091 4.14368 11.6967 4.67704C12.9844 5.2104 14.0849 6.11361 14.8593 7.27247C15.6336 8.43132 16.0469 9.79376 16.0469 11.1875C16.0446 13.0557 15.3014 14.8468 13.9804 16.1679C12.6593 17.4889 10.8683 18.2321 9 18.2344ZM12.8019 7.38563C12.8984 7.48231 12.9527 7.61336 12.9527 7.75C12.9527 7.88664 12.8984 8.01769 12.8019 8.11437L9.36438 11.5519C9.31717 11.6025 9.26025 11.6432 9.197 11.6713C9.13375 11.6995 9.06547 11.7147 8.99624 11.7159C8.927 11.7171 8.85823 11.7044 8.79403 11.6785C8.72983 11.6525 8.6715 11.6139 8.62254 11.565C8.57358 11.516 8.53498 11.4577 8.50904 11.3935C8.48311 11.3293 8.47038 11.2605 8.4716 11.1913C8.47282 11.122 8.48797 11.0538 8.51615 10.9905C8.54434 10.9273 8.58497 10.8703 8.63563 10.8231L12.0731 7.38563C12.1698 7.28907 12.3009 7.23483 12.4375 7.23483C12.5741 7.23483 12.7052 7.28907 12.8019 7.38563ZM6.42188 0.875C6.42188 0.738248 6.4762 0.607097 6.5729 0.510398C6.6696 0.4137 6.80075 0.359375 6.9375 0.359375H11.0625C11.1993 0.359375 11.3304 0.4137 11.4271 0.510398C11.5238 0.607097 11.5781 0.738248 11.5781 0.875C11.5781 1.01175 11.5238 1.1429 11.4271 1.2396C11.3304 1.3363 11.1993 1.39062 11.0625 1.39062H6.9375C6.80075 1.39062 6.6696 1.3363 6.5729 1.2396C6.4762 1.1429 6.42188 1.01175 6.42188 0.875Z" fill="black"/>
</svg>
