<?xml version="1.0" encoding="UTF-8" standalone="no"?>
<svg
   width="24"
   height="24"
   viewBox="0 0 24 24"
   fill="none"
   version="1.1"
   id="svg1"
   xmlns="http://www.w3.org/2000/svg"
   xmlns:svg="http://www.w3.org/2000/svg">
  <defs
     id="defs1" />
  <path
     fill-rule="evenodd"
     clip-rule="evenodd"
     d="M19.8142 5.41682C20.6764 5.64909 21.3541 6.32682 21.5832 7.18591C22 8.745 22 12 22 12C22 12 22 15.255 21.5832 16.8141C21.3509 17.6764 20.6732 18.3541 19.8142 18.5832C18.2552 19 12 19 12 19C12 19 5.74801 19 4.18581 18.5832C3.32358 18.3509 2.64588 17.6732 2.4168 16.8141C2 15.255 2 12 2 12C2 12 2 8.745 2.4168 7.18591C2.64906 6.32364 3.32676 5.64591 4.18581 5.41682C5.74801 5 12 5 12 5C12 5 18.2552 5 19.8142 5.41682ZM15.1976 12L10.0019 15.0005V8.99955L15.1976 12Z"
     fill="white"
     id="path1"
     style="fill:#ffffff" />
</svg>
