<svg viewBox="-1 -1 26.56 23.000086">
<path d="m 17.323638,1.0252719 c -2.1183,0 -3.9602,0.954402 -5.0436,2.553822 -1.0834,-1.59942 -2.9253399,-2.553822 -5.0436799,-2.553822 -1.60462,0.00187 -3.14299,0.639552 -4.27763,1.773162 -1.134636,1.13362 -1.772897,2.67059 -1.774766,4.27376 0,2.9428401 1.835896,6.0056201 5.457246,9.1016201 1.65941,1.4127 3.4518899,2.6616 5.3523299,3.729 0.0881,0.0472 0.1865,0.072 0.2865,0.072 0.1,0 0.1984,-0.0248 0.2865,-0.072 1.9004,-1.0674 3.6929,-2.3163 5.3523,-3.729 3.6213,-3.096 5.4572,-6.15878 5.4572,-9.1016201 -0.0018,-1.60317 -0.6401,-3.14014 -1.7747,-4.27376 -1.1347,-1.13361 -2.673,-1.771295 -4.2777,-1.773162 z"/>
</svg>
